<?xml version="1.0" encoding="utf-8"?>
<!-- Generator: Adobe Illustrator 22.1.0, SVG Export Plug-In . SVG Version: 6.00 Build 0)  -->
<svg version="1.1" id="图层_1" xmlns="http://www.w3.org/2000/svg" xmlns:xlink="http://www.w3.org/1999/xlink" x="0px" y="0px"
	 viewBox="0 0 132.1 128" style="enable-background:new 0 0 132.1 128;" xml:space="preserve">
<style type="text/css">
	.st0{fill:#8EDFDC;}
	.st1{fill:#FFFFFF;}
	.st2{fill:#50403D;}
	.st3{fill:#BFBBB5;}
	.st4{fill:#7F7C78;}
	.st5{fill:#271B19;}
</style>
<path class="st0" d="M0.5,64c0,35.3,28.7,64,64,64s64-28.7,64-64S99.9,0,64.5,0S0.5,28.7,0.5,64z"/>
<path class="st1" d="M111.4,106.1c-9.3-5.9-24-11-25.5-11.8c-1.6-0.8-9.3-3.2-9.6-9.3c-0.2-5.4,4.9-7.4,9.6-13.1
	c3.2-6.2,7.5-21.1,3.2-34.7c-7.2-16.5-24-16.5-24-16.5l-0.5,0.2L64,20.7c0,0-16.8,0-24,16.5c-4.3,13.6,0,29.2,3.2,34.7
	c4.7,5.7,9.8,7.7,9.6,13.1c-0.3,6.1-8,8.5-9.6,9.3c-1.5,0.7-16.2,5.9-25.5,11.8l-0.1,0.1c11.7,12.6,28.4,20.5,46.9,20.5
	C83.1,126.6,99.8,118.7,111.4,106.1L111.4,106.1z"/>
<path class="st2" d="M53.7,76.2c-0.1,0-13.9-1.2-18.3-14.1l1.2-0.4c4.2,12,17.1,13.2,17.2,13.2C53.7,74.8,53.7,76.2,53.7,76.2z"/>
<path class="st3" d="M86.1,19.4c-5.1-5.1-12.5-7.8-21.8-7.8s-16.6,2.6-21.8,7.8c-8.8,8.8-8,21.7-7.9,22.3l2.2-0.1
	c0-0.1-0.8-12.5,7.3-20.8c4.7-4.7,11.5-7,20.1-7c8.7,0,15.4,2.4,20.1,7c8.1,8.1,7.4,20.5,7.4,20.8l0,0l2.2,0.1
	C94,41.1,94.9,28.1,86.1,19.4z"/>
<path class="st3" d="M37,46.7c0,1.1-1.1,2.1-2.4,2.1c-1.3,0-2.4-0.9-2.4-2.1v-4.3c0-1.1,1.1-2.1,2.4-2.1c1.3,0,2.4,1,2.4,2.1V46.7z"
	/>
<path class="st2" d="M26.6,54.3c0.5,6.5,6.5,11.3,13.3,10.9L38,41.7C31.1,42.1,26,47.8,26.6,54.3z"/>
<path class="st4" d="M37.6,40.2c-0.1,0-0.3,0-0.4,0c-1.3,0.1-2.2,1.1-2.1,2.3v0.1l1.8,17.2V60l0.4,4.1c0,0.2,0.1,0.4,0.2,0.6
	c0.3,0.7,1,1.2,1.9,1.3c0.1,0,0.3,0,0.4,0c1.3-0.1,2.2-1.1,2.1-2.3l-2.2-21.4C39.5,41.1,38.7,40.4,37.6,40.2"/>
<path class="st3" d="M91.6,46.7c0,1.1,1.1,2.1,2.4,2.1s2.4-0.9,2.4-2.1v-4.3c0-1.1-1.1-2.1-2.4-2.1s-2.4,1-2.4,2.1V46.7z"/>
<path class="st2" d="M102.5,54.2c-0.6,6.5-6.7,11.5-13.8,11.1l1.9-23.8C97.7,41.8,102.9,47.5,102.5,54.2z"/>
<path class="st4" d="M91,40.2c0.1,0,0.3,0,0.4,0c1.3,0.1,2.2,1.1,2.1,2.3v0.1l-1.8,17.2V60l-0.4,4.1c0,0.2-0.1,0.4-0.2,0.6
	c-0.3,0.7-1,1.2-1.9,1.3c-0.1,0-0.3,0-0.4,0c-1.3-0.1-2.2-1.1-2.1-2.3l2.2-21.6C89.1,41.1,89.9,40.4,91,40.2"/>
<path class="st5" d="M61,74.7c0,2-2.4,3.7-5.4,3.7s-5.4-1.7-5.4-3.7s2.4-3.7,5.4-3.7C58.5,70.9,61,72.6,61,74.7z"/>
</svg>
