<?xml version="1.0" standalone="no"?><!DOCTYPE svg PUBLIC "-//W3C//DTD SVG 1.1//EN" "http://www.w3.org/Graphics/SVG/1.1/DTD/svg11.dtd"><svg t="1554789194333" class="icon" style="" viewBox="0 0 1024 1024" version="1.1" xmlns="http://www.w3.org/2000/svg" p-id="5397" data-spm-anchor-id="a313x.7781069.0.i18" xmlns:xlink="http://www.w3.org/1999/xlink" width="64" height="64"><defs><style type="text/css"></style></defs><path d="M875.27619 529.066667H514.438095c-12.190476 0-24.380952-9.752381-24.380952-24.380953V136.533333c0-12.190476-9.752381-24.380952-24.380953-24.380952h-4.87619c-58.514286 0-117.028571 12.190476-170.666667 34.133333-51.2 21.942857-97.52381 53.638095-138.971428 95.085715S82.895238 331.580952 60.952381 385.219048C36.571429 438.857143 24.380952 497.371429 24.380952 558.32381S36.571429 677.790476 60.952381 731.428571c21.942857 53.638095 53.638095 99.961905 92.647619 141.409524 39.009524 41.447619 87.771429 73.142857 138.971429 95.085715 53.638095 24.380952 109.714286 34.133333 170.666666 34.133333 58.514286 0 117.028571-12.190476 170.666667-34.133333 51.2-21.942857 97.52381-53.638095 138.971428-95.085715 39.009524-41.447619 70.704762-87.771429 92.64762-141.409524 21.942857-56.07619 34.133333-114.590476 34.133333-173.104761v-4.876191c-2.438095-14.628571-12.190476-24.380952-24.380953-24.380952z m-146.285714 302.323809c-70.704762 73.142857-165.790476 114.590476-268.190476 114.590476s-197.485714-41.447619-268.190476-114.590476c-70.704762-73.142857-112.152381-170.666667-112.152381-275.504762 0-102.4 39.009524-199.92381 112.152381-275.504762 65.828571-65.828571 148.72381-104.838095 241.371428-112.152381V560.761905c0 12.190476 9.752381 24.380952 24.380953 24.380952H841.142857c-7.314286 95.085714-46.32381 180.419048-112.152381 246.247619z" fill="#000000" p-id="5398" data-spm-anchor-id="a313x.7781069.0.i17" class="selected"></path><path d="M960.609524 275.504762c-21.942857-51.2-51.2-95.085714-90.209524-134.095238s-82.895238-70.704762-131.657143-90.209524C687.542857 29.257143 633.904762 17.066667 577.828571 17.066667H572.952381c-12.190476 0-24.380952 9.752381-24.380952 24.380952v407.161905c0 12.190476 9.752381 24.380952 24.380952 24.380952h397.409524c12.190476 0 24.380952-9.752381 24.380952-24.380952v-4.876191c0-60.952381-12.190476-117.028571-34.133333-168.228571z m-329.142857 136.533333c-12.190476 0-24.380952-9.752381-24.380953-24.380952V75.580952c85.333333 7.314286 163.352381 43.885714 224.304762 107.276191 60.952381 63.390476 97.52381 143.847619 104.838095 229.180952H631.466667z" fill="#000000" p-id="5399" data-spm-anchor-id="a313x.7781069.0.i19" class="selected"></path></svg>