<?xml version="1.0" standalone="no"?><!DOCTYPE svg PUBLIC "-//W3C//DTD SVG 1.1//EN" "http://www.w3.org/Graphics/SVG/1.1/DTD/svg11.dtd"><svg t="1554789039419" class="icon" style="" viewBox="0 0 1024 1024" version="1.1" xmlns="http://www.w3.org/2000/svg" p-id="3525" data-spm-anchor-id="a313x.7781069.0.i10" xmlns:xlink="http://www.w3.org/1999/xlink" width="64" height="64"><defs><style type="text/css"></style></defs><path d="M980.114286 314.514286c-29.257143-58.514286-65.828571-117.028571-109.714286-160.914286-43.885714-43.885714-102.4-80.457143-160.914286-109.714286-65.828571-29.257143-131.657143-36.571429-197.485714-36.571428s-138.971429 14.628571-197.485714 36.571428c-58.514286 29.257143-117.028571 65.828571-160.914286 109.714286-43.885714 43.885714-80.457143 102.4-109.714286 160.914286-29.257143 65.828571-36.571429 131.657143-36.571428 197.485714s14.628571 138.971429 36.571428 197.485714c29.257143 58.514286 65.828571 117.028571 109.714286 160.914286 43.885714 43.885714 102.4 80.457143 160.914286 109.714286 65.828571 29.257143 131.657143 36.571429 197.485714 36.571428s138.971429-14.628571 197.485714-36.571428c58.514286-29.257143 117.028571-65.828571 160.914286-109.714286 43.885714-43.885714 80.457143-102.4 109.714286-160.914286 29.257143-65.828571 36.571429-131.657143 36.571428-197.485714s-7.314286-138.971429-36.571428-197.485714z m-468.114286 636.342857c-241.371429 0-438.857143-197.485714-438.857143-438.857143s197.485714-438.857143 438.857143-438.857143 438.857143 197.485714 438.857143 438.857143-197.485714 438.857143-438.857143 438.857143z" fill="#000000" p-id="3526" data-spm-anchor-id="a313x.7781069.0.i9" class="selected"></path><path d="M636.342857 248.685714c-29.257143 0-58.514286 7.314286-80.457143 21.942857-43.885714 29.257143-73.142857 73.142857-73.142857 124.342858v234.057142c0 21.942857-14.628571 43.885714-36.571428 58.514286-14.628571 7.314286-29.257143 14.628571-43.885715 14.628572-43.885714 0-80.457143-29.257143-80.457143-73.142858 0-14.628571 0-21.942857 7.314286-36.571428s29.257143-29.257143 51.2-36.571429c21.942857 0 36.571429-14.628571 36.571429-36.571428s-14.628571-36.571429-36.571429-36.571429c-7.314286 0-14.628571 0-29.257143 7.314286-36.571429 14.628571-65.828571 36.571429-87.771428 65.828571-14.628571 21.942857-21.942857 43.885714-21.942857 73.142857 0 80.457143 73.142857 146.285714 153.6 146.285715 29.257143 0 58.514286-7.314286 80.457142-21.942857 43.885714-29.257143 73.142857-73.142857 73.142858-124.342858v-234.057142c0-21.942857 14.628571-43.885714 36.571428-58.514286 14.628571-7.314286 29.257143-14.628571 43.885714-14.628572 43.885714 0 80.457143 29.257143 80.457143 73.142858 0 14.628571 0 21.942857-7.314285 36.571428s-29.257143 29.257143-51.2 36.571429c-21.942857 0-36.571429 14.628571-36.571429 36.571428s14.628571 36.571429 36.571429 36.571429c7.314286 0 14.628571 0 29.257142-7.314286 36.571429-14.628571 65.828571-36.571429 87.771429-65.828571 14.628571-21.942857 21.942857-43.885714 21.942857-73.142857 0-80.457143-73.142857-146.285714-153.6-146.285715z" fill="#000000" p-id="3527" data-spm-anchor-id="a313x.7781069.0.i8" class="selected"></path></svg>