<?xml version="1.0" encoding="UTF-8"?>
<svg width="150px" height="150px" viewBox="0 0 150 150" version="1.1" xmlns="http://www.w3.org/2000/svg" xmlns:xlink="http://www.w3.org/1999/xlink">
    <!-- Generator: Sketch 50 (54983) - http://www.bohemiancoding.com/sketch -->
    <title>精品展示-首页1 copy 2</title>
    <desc>Created with Sketch.</desc>
    <defs></defs>
    <g id="精品展示-首页1-copy-2" stroke="none" stroke-width="1" fill="none" fill-rule="evenodd">
        <g id="Group-30">
            <g id="Group-22">
                <circle id="Oval-33" fill="#3B76D8" cx="75" cy="75" r="75"></circle>
                <g id="Group-26" transform="translate(75.000000, 75.000000) scale(1, -1) translate(-75.000000, -75.000000) translate(21.000000, 21.000000)">
                    <g id="Group-25">
                        <g id="Group-24" fill="#FFFFFF">
                            <g id="Group-23" transform="translate(16.000000, 28.000000)">
                                <path d="M30,41 L47,41 L43.1570883,66 L31.9871105,66 L30,41 Z M33.1626763,47.1508371 L34.2857774,62 L41.5134101,62 L43.6651207,47.2894599 C43.824985,46.1965202 43.0685779,45.1809219 41.9756382,45.0210576 C41.8797889,45.0070377 41.7830476,45 41.6861783,45 L35.1569803,45 C34.0524108,45 33.1569803,45.8954305 33.1569803,47 C33.1569803,47.0503328 33.1588803,47.1006477 33.1626763,47.1508371 Z" id="Combined-Shape"></path>
                                <path d="M4.84326674,2.11121593 L21.8432667,2.11121593 L18.0003551,23.1112159 L6.83037724,23.1112159 L4.84326674,2.11121593 Z M8.04374815,7.29412862 L9.12904412,19.1112159 L16.3566768,19.1112159 L18.4259187,7.46096914 C18.6190821,6.37342066 17.8940397,5.33519858 16.8064912,5.14203522 C16.6910357,5.12152876 16.5740004,5.11121593 16.456738,5.11121593 L10.0353663,5.11121593 C8.93079683,5.11121593 8.03536633,6.00664643 8.03536633,7.11121593 C8.03536633,7.17228282 8.0381632,7.23331766 8.04374815,7.29412862 Z" id="Combined-Shape-Copy-3" transform="translate(13.343267, 12.611216) rotate(120.000000) translate(-13.343267, -12.611216) "></path>
                                <path d="M54,2 L71,2 L67.1570883,25 L55.9871105,25 L54,2 Z M57.1860786,8.1708106 L58.2857774,21 L65.5134101,21 L67.6142335,8.32708159 C67.7948757,7.23738338 67.0579401,6.20756903 65.9682419,6.02692685 C65.8601365,6.00900593 65.7507411,6 65.6411603,6 L59.1787712,6 C58.0742017,6 57.1787712,6.8954305 57.1787712,8 C57.1787712,8.057015 57.1812092,8.11400392 57.1860786,8.1708106 Z" id="Combined-Shape-Copy-4" transform="translate(62.500000, 13.500000) scale(-1, 1) rotate(120.000000) translate(-62.500000, -13.500000) "></path>
                            </g>
                            <path d="M54,108 C24.1766235,108 0,83.8233765 0,54 C0,24.1766235 24.1766235,0 54,0 C83.8233765,0 108,24.1766235 108,54 C108,83.8233765 83.8233765,108 54,108 Z M54,99.1304348 C78.9248509,99.1304348 99.1304348,78.9248509 99.1304348,54 C99.1304348,29.0751491 78.9248509,8.86956522 54,8.86956522 C29.0751491,8.86956522 8.86956522,29.0751491 8.86956522,54 C8.86956522,78.9248509 29.0751491,99.1304348 54,99.1304348 Z" id="Combined-Shape"></path>
                        </g>
                        <circle id="Oval-31" stroke="#FFFFFF" stroke-width="5" cx="54" cy="53" r="18"></circle>
                        <path d="M54,67 C46.2680135,67 40,60.7319865 40,53 C40,45.2680135 46.2680135,39 54,39 C61.7319865,39 68,45.2680135 68,53 C68,60.7319865 61.7319865,67 54,67 Z M54,65 C60.627417,65 66,59.627417 66,53 C66,46.372583 60.627417,41 54,41 C47.372583,41 42,46.372583 42,53 C42,59.627417 47.372583,65 54,65 Z" id="Combined-Shape" fill="#FFFFFF"></path>
                        <path d="M54,64 C47.9248678,64 43,59.0751322 43,53 C43,46.9248678 47.9248678,42 54,42 C60.0751322,42 65,46.9248678 65,53 C65,59.0751322 60.0751322,64 54,64 Z M46.5,52 C47.3284271,52 48,51.3284271 48,50.5 C48,49.6715729 47.3284271,49 46.5,49 C45.6715729,49 45,49.6715729 45,50.5 C45,51.3284271 45.6715729,52 46.5,52 Z M53.5,47 C54.3284271,47 55,46.3284271 55,45.5 C55,44.6715729 54.3284271,44 53.5,44 C52.6715729,44 52,44.6715729 52,45.5 C52,46.3284271 52.6715729,47 53.5,47 Z M61.5,52 C62.3284271,52 63,51.3284271 63,50.5 C63,49.6715729 62.3284271,49 61.5,49 C60.6715729,49 60,49.6715729 60,50.5 C60,51.3284271 60.6715729,52 61.5,52 Z M58.5,61 C59.3284271,61 60,60.3284271 60,59.5 C60,58.6715729 59.3284271,58 58.5,58 C57.6715729,58 57,58.6715729 57,59.5 C57,60.3284271 57.6715729,61 58.5,61 Z M49.5,61 C50.3284271,61 51,60.3284271 51,59.5 C51,58.6715729 50.3284271,58 49.5,58 C48.6715729,58 48,58.6715729 48,59.5 C48,60.3284271 48.6715729,61 49.5,61 Z" id="Combined-Shape" fill="#FFFFFF"></path>
                    </g>
                    <polygon id="Rectangle-33" fill="#FFFFFF" points="46.0666667 90 62.9333333 90 66 101 43 101"></polygon>
                    <polygon id="Rectangle-33-Copy" fill="#FFFFFF" transform="translate(19.500000, 33.500000) rotate(120.000000) translate(-19.500000, -33.500000) " points="11.0666667 28 27.9333333 28 31 39 8 39"></polygon>
                    <polygon id="Rectangle-33-Copy-2" fill="#FFFFFF" transform="translate(89.500000, 33.500000) scale(-1, 1) rotate(120.000000) translate(-89.500000, -33.500000) " points="81.0666667 28 97.9333333 28 101 39 78 39"></polygon>
                </g>
            </g>
        </g>
    </g>
</svg>