<?xml version="1.0" standalone="no"?><!DOCTYPE svg PUBLIC "-//W3C//DTD SVG 1.1//EN" "http://www.w3.org/Graphics/SVG/1.1/DTD/svg11.dtd"><svg t="1555314316380" class="icon" style="" viewBox="0 0 1024 1024" version="1.1" xmlns="http://www.w3.org/2000/svg" p-id="3028" xmlns:xlink="http://www.w3.org/1999/xlink" width="64" height="64"><defs><style type="text/css"></style></defs><path d="M1023.840573 511.920287c0 282.287472-229.632814 511.920287-511.920286 511.920286S0 794.207759 0 511.920287 229.632814 0 511.920287 0s511.920287 229.632814 511.920286 511.920287" fill="#EFEFEF" p-id="3029"></path><path d="M10.238406 609.916456h201.842856c-4.387888-19.014182-5.850518-38.028364-7.313147-58.505176H1.462629c1.462629 20.476811 4.387888 39.490994 8.775777 58.505176m203.305485-207.693374c4.387888-20.476811 10.238406-39.490994 16.088923-58.505175H27.789958c1.462629-4.387888 2.925259-7.313147 4.387889-11.701035-10.238406 26.327329-17.551553 52.654658-23.402071 80.444616 0-4.387888 1.462629-7.313147 2.925259-10.238406h201.842856zM482.667699 54.117287c40.953623-20.476811 84.832505-35.103105 130.174016-45.341511C580.663868 2.925259 547.023392 0 511.920287 0c-90.683022 0-176.978156 23.40207-251.572255 65.818323 7.313147-4.387888 13.163665-7.313147 20.476811-10.238406H482.667699z m-171.127639 138.949793c16.088923-20.476811 35.103105-40.953623 54.117288-58.505176H165.277121c4.387888-4.387888 8.775776-7.313147 11.701035-11.701035-26.327329 23.40207-51.192029 48.26677-71.66884 76.056728 1.462629-2.925259 4.387888-4.387888 5.850518-7.313147h200.380226zM10.238406 611.379085c5.850518 27.789958 13.163665 54.117287 23.40207 80.444617-2.925259-4.387888-4.387888-7.313147-5.850518-11.701035h200.380227c-7.313147-19.014182-11.701035-38.028364-16.088923-58.505176H11.701035c0-2.925259-1.462629-7.313147-1.462629-10.238406m248.646996-337.867389H58.505176c1.462629-4.387888 4.387888-7.313147 5.850517-11.701035h201.842856c11.701035-20.476811 23.40207-39.490994 38.028364-58.505176H102.384057c-29.252588 38.028364-52.654658 81.907246-70.20621 128.711387H234.020702c7.313147-19.014182 16.088923-39.490994 24.8647-58.505176M462.190887 65.818323H260.348032c-29.252588 16.088923-57.042546 36.565735-83.369876 58.505175h200.380227c26.327329-21.939441 55.579917-42.416252 84.832504-58.505175m-201.842855 892.203928h201.842855c-29.252588-16.088923-57.042546-36.565735-83.369875-58.505176H178.440786c24.8647 21.939441 52.654658 42.416252 81.907246 58.505176m0 0c74.594099 42.416252 160.889233 65.818323 251.572255 65.818322 35.103105 0 68.743581-2.925259 100.921428-10.238405-45.341511-8.775776-89.220393-24.8647-130.174016-45.341511H280.824843c-5.850518-2.925259-13.163665-5.850518-20.476811-10.238406m-58.505176-416.849376c0-10.238406-1.462629-19.014182-1.462629-29.252588s0-19.014182 1.462629-29.252588H1.462629v-1.46263C0 491.443475 0 501.681881 0 511.920287s0 20.476811 1.462629 30.715217V541.172875h200.380227zM102.384057 819.072459h201.842856c-14.626294-19.014182-26.327329-38.028364-38.028364-58.505176H64.355693c-1.462629-2.925259-4.387888-7.313147-5.850517-11.701035h200.380226c-10.238406-19.014182-19.014182-38.028364-26.327329-58.505176H32.177847C49.729399 737.165213 73.13147 779.581465 102.384057 819.072459m108.234575-406.610971H10.238406c-4.387888 19.014182-5.850518 38.028364-7.313147 58.505176h200.380226c1.462629-19.014182 4.387888-38.028364 7.313147-58.505176M105.309316 823.460347c21.939441 27.789958 45.341511 54.117287 71.66884 76.056728-4.387888-2.925259-8.775776-7.313147-11.701035-10.238406h201.842856c-19.014182-17.551553-38.028364-38.028364-54.117287-58.505175H111.159834c-1.462629-2.925259-4.387888-5.850518-5.850518-7.313147" fill="#F4F4F4" p-id="3030"></path><path d="M763.492542 65.818323H462.190887c7.313147-4.387888 13.163665-7.313147 20.476812-11.701036h260.348031c5.850518 4.387888 13.163665 7.313147 20.476812 11.701036z m95.07091 68.743581H367.119977c4.387888-4.387888 8.775776-7.313147 11.701035-11.701035h468.041405c2.925259 4.387888 7.313147 8.775776 11.701035 11.701035zM921.456516 204.768115H304.226913c2.925259-4.387888 5.850518-7.313147 8.775777-11.701035h601.140679c1.462629 4.387888 4.387888 7.313147 7.313147 11.701035z m43.878882 68.743581H258.885402c1.462629-4.387888 4.387888-7.313147 5.850518-11.701035h693.286331c2.925259 4.387888 5.850518 8.775776 7.313147 11.701035z m30.715217 70.206211H229.632814c1.462629-4.387888 2.925259-7.313147 4.387888-11.701035h757.642025c1.462629 4.387888 2.925259 7.313147 4.387888 11.701035z m17.551553 68.743581H210.618632c0-4.387888 1.462629-7.313147 2.925259-11.701035h798.595647c0 4.387888 1.462629 8.775776 1.46263 11.701035z m8.775776 70.206211H201.842856c0-4.387888 0-7.313147 1.462629-11.701035h819.072459v11.701035z m-819.072459 68.743581c0-2.925259 0-7.313147-1.462629-11.701035h820.535088c0 4.387888 0 7.313147-1.462629 11.701035H203.305485z m808.834053 70.206211H213.543891c-1.462629-2.925259-1.462629-7.313147-2.925259-11.701035h802.983536c0 4.387888-1.462629 8.775776-1.46263 11.701035z m-20.476811 68.743581H234.020702c-1.462629-2.925259-2.925259-7.313147-4.387888-11.701035h766.417801c-1.462629 5.850518-2.925259 8.775776-4.387888 11.701035zM959.48488 760.567283H266.198549c-1.462629-2.925259-4.387888-7.313147-5.850517-11.701035H965.335398c-1.462629 4.387888-4.387888 8.775776-5.850518 11.701035z m-46.80414 68.743581H311.54006c-2.925259-2.925259-5.850518-7.313147-8.775776-11.701035H921.456516c-2.925259 5.850518-5.850518 8.775776-8.775776 11.701035z m-67.280952 70.206211h-468.041405c-4.387888-2.925259-8.775776-7.313147-11.701035-11.701035h491.443475c-2.925259 4.387888-7.313147 8.775776-11.701035 11.701035z m-102.384058 68.743582H482.667699c-7.313147-2.925259-13.163665-7.313147-20.476812-11.701036h301.301655c-7.313147 5.850518-14.626294 8.775776-20.476812 11.701036z" fill="#DBDBDB" p-id="3031"></path><path d="M482.667699 54.117287c-7.313147 2.925259-13.163665 7.313147-20.476812 10.238406H260.348032c7.313147-4.387888 13.163665-7.313147 20.476811-10.238406H482.667699z m-115.547722 80.444617H165.277121c4.387888-4.387888 8.775776-7.313147 11.701035-11.701035h200.380227c-2.925259 4.387888-7.313147 8.775776-10.238406 11.701035z m-55.579917 58.505176c-2.925259 2.925259-5.850518 7.313147-8.775776 11.701035H102.384057c1.462629-1.462629 1.462629-2.925259 2.925259-4.387888 1.462629-2.925259 4.387888-4.387888 5.850518-7.313147h200.380226zM58.505176 273.511696c1.462629-4.387888 4.387888-7.313147 5.850517-11.701035h201.842856c-1.462629 2.925259-4.387888 7.313147-5.850517 11.701035H58.505176z m171.127638 70.206211H27.789958c1.462629-4.387888 2.925259-7.313147 4.387889-11.701035H234.020702c-1.462629 4.387888-2.925259 7.313147-4.387888 11.701035z m-16.088923 58.505175c-1.462629 2.925259-1.462629 7.313147-2.925259 11.701036H10.238406c0-4.387888 1.462629-7.313147 2.925259-10.238406h200.380226z m-11.701035 80.444617H1.462629v-1.46263-8.775776h200.380227v10.238406zM1.462629 541.172875h201.842856c0 4.387888 0 7.313147 1.46263 11.701035H1.462629v-8.775777-2.925258z m8.775777 70.20621h201.842856c0 4.387888 1.462629 7.313147 2.925258 11.701035H11.701035c0-4.387888-1.462629-8.775776-1.462629-11.701035z m21.939441 78.981987c-1.462629-2.925259-2.925259-5.850518-4.387889-10.238405h200.380227c1.462629 4.387888 2.925259 7.313147 4.387888 11.701035H32.177847zM64.355693 760.567283c-1.462629-2.925259-4.387888-7.313147-5.850517-11.701035h200.380226c1.462629 4.387888 4.387888 7.313147 5.850518 11.701035H64.355693z m40.953623 62.893064c-1.462629-1.462629-1.462629-2.925259-2.925259-4.387888h201.842856c2.925259 4.387888 5.850518 7.313147 8.775777 11.701035H111.159834c-1.462629-2.925259-4.387888-5.850518-5.850518-7.313147z m73.13147 76.056728c-4.387888-2.925259-8.775776-7.313147-11.701035-11.701035h201.842855c4.387888 4.387888 8.775776 7.313147 11.701036 11.701035H178.440786z m81.907246 58.505176h201.842855c7.313147 4.387888 13.163665 7.313147 20.476812 11.701035H280.824843c-5.850518-4.387888-13.163665-7.313147-20.476811-11.701035z" fill="#E5E5E5" p-id="3032"></path><path d="M102.384057 204.768115c1.462629-1.462629 1.462629-2.925259 2.925259-4.387888-1.462629 1.462629-1.462629 2.925259-2.925259 4.387888M10.238406 412.461488z m-8.775777 58.505176v0m0 80.444616v-8.775776 8.775776M102.384057 819.072459c1.462629 1.462629 1.462629 2.925259 2.925259 4.387888-1.462629-1.462629-1.462629-2.925259-2.925259-4.387888" fill="#E0E0E0" p-id="3033"></path><path d="M501.681881 905.367593l1.462629-8.775777 2.925259-8.775776-5.850517 27.789958z" fill="#EFEFEF" p-id="3034"></path><path d="M482.667699 898.054446c-1.462629 4.387888 4.387888 8.775776 4.387888 8.775776l13.163665 8.775776 4.387888-27.789958-16.088924 4.387888c1.462629-1.462629-4.387888 0-5.850517 5.850518" fill="#BFBFBF" p-id="3035"></path><path d="M903.904963 912.68074l-59.967805-10.238406c-43.878882 38.028364-95.07091 67.280952-150.650827 89.220393L879.040264 1023.840573H883.428152c11.701035 1.462629 23.40207-7.313147 24.8647-19.014182l11.701035-65.818322c2.925259-11.701035-5.850518-23.40207-16.088924-26.327329" fill="#333333" p-id="3036"></path><path d="M608.453826 861.488711c-2.925259 0-7.313147 0-10.238405 1.462629l-93.608281 24.8647-1.46263 10.238406-1.462629 8.775776-1.462629 8.775776 81.907245 55.579917c1.462629 1.462629 4.387888 2.925259 7.313147 2.925259l102.384058 17.551553c55.579917-20.476811 106.771946-51.192029 150.650827-89.220393l-234.020703-40.953623z" fill="#BFBFBF" p-id="3037"></path><path d="M896.591816 1016.527426c11.701035 4.387888 24.8647-2.925259 29.252588-14.626293l19.014182-64.355694c4.387888-11.701035-2.925259-24.8647-14.626294-29.252587l-4.387888-1.46263-33.640476 108.234575 4.387888 1.462629z" fill="#333333" p-id="3038"></path><path d="M636.243785 854.175564l1.462629-35.103105-97.996169 13.163664-2.925259 8.775777z" fill="#FCE0AD" p-id="3039"></path><path d="M626.005379 896.591816l10.238406-42.416252-99.458799-13.163664-2.925258 8.775776z" fill="#E5C691" p-id="3040"></path><path d="M539.710245 832.236123l-16.088923 1.46263s-5.850518 0-7.313147 5.850517c-1.462629 4.387888 2.925259 8.775776 2.925259 8.775777l11.701035 10.238405 8.775776-26.327329z" fill="#333333" p-id="3041"></path><path d="M626.005379 896.591816l-92.145651-46.80414-2.925259 8.775776 74.594099 65.818323z" fill="#C9A473" p-id="3042"></path><path d="M919.993887 943.395957l-285.212731-89.220393c-10.238406-2.925259-20.476811 2.925259-24.8647 14.626294-2.925259 11.701035 1.462629 23.40207 11.701035 26.327329L906.830222 984.34958l13.163665-40.953623z" fill="#EFAF00" p-id="3043"></path><path d="M930.232292 909.755481l-285.212731-89.220393c-10.238406-2.925259-20.476811 1.462629-23.40207 11.701035-2.925259 8.775776 2.925259 19.014182 13.163665 23.40207l285.212731 89.220393 10.238405-35.103105z" fill="#FCCE00" p-id="3044"></path><path d="M908.292852 982.88695l-285.212732-89.220392c-10.238406-2.925259-20.476811 1.462629-23.40207 11.701035-2.925259 8.775776 2.925259 19.014182 13.163665 21.939441l285.212731 89.220392 10.238406-33.640476z" fill="#D39200" p-id="3045"></path></svg>